/* XPM */
static char * hacksoc_xpm[] = {
"128 128 8 1",
" 	c None",
".	c #372D43",
"+	c #FFFFFF",
"@	c #AFABB3",
"#	c #5F5768",
"$	c #BDAFC9",
"%	c #877B93",
"&	c #51475D",
"                                                        ................                                                        ",
"                                                  ............................                                                  ",
"                                              ....................................                                              ",
"                                           ..........................................                                           ",
"                                        ................................................                                        ",
"                                      ....................................................                                      ",
"                                    ........................................................                                    ",
"                                  ............................................................                                  ",
"                                ................................................................                                ",
"                              ....................................................................                              ",
"                             ......................................................................                             ",
"                           ..........................................................................                           ",
"                          ............................................................................                          ",
"                         ..............................................................................                         ",
"                       ..................................................................................                       ",
"                      ....................................................................................                      ",
"                     ......................................................................................                     ",
"                    ........................................................................................                    ",
"                   ..........................................................................................                   ",
"                  ............................................................................................                  ",
"                 ..............................................................................................                 ",
"                ................................................................................................                ",
"               ..................................................................................................               ",
"              ....................................................................................................              ",
"              ....................................................................................................              ",
"             ......................................................................................................             ",
"            ........................................................................................................            ",
"           ..........................................................................................................           ",
"           ..........................................................................................................           ",
"          ............................................................................................................          ",
"         ....................++++++++++@...............................................................................         ",
"         ....................+++++++++++++.............................................................................         ",
"        .....................++++++++++++++.............................................................................        ",
"        .....................+++++++++++++++............................................................................        ",
"       ......................++++++++++++++++............................................................................       ",
"       ......................+++++++++++++++++...........................................................................       ",
"      .......................++...#+++++++++++............................................................................      ",
"      ...............................++++++++++...........................................................................      ",
"     ..................................++++++++#...........................................................................     ",
"     ..................................#++++++++...........................................................................     ",
"    ....................................++++++++............................................................................    ",
"    .....................................++++++++...........................................................................    ",
"    .....................................++++++++...........................................................................    ",
"   .......................................++++++++...........................................................................   ",
"   .......................................++++++++...........................................................................   ",
"   .......................................++++++++...........................................................................   ",
"  .........................................++++++++...........................................................................  ",
"  .........................................++++++++...................$$$$$$$$$.......................$$$$$$$$$...............  ",
"  .........................................++++++++....................$$$$$$$$$......................$$$$$$$$$...............  ",
"  .........................................+++++++++...................$$$$$$$$$......................$$$$$$$$................  ",
" .........................................++++++++++....................$$$$$$$$.....................$$$$$$$$$................. ",
" .........................................++++++++++....................$$$$$$$$$....................$$$$$$$$$................. ",
" .........................................+++++++++++...................$$$$$$$$$....................$$$$$$$$.................. ",
" ........................................++++++++++++....................$$$$$$$$...................$$$$$$$$$.................. ",
" ........................................+++++++++++++...................$$$$$$$$$..................$$$$$$$$................... ",
" .......................................++++++++++++++....................$$$$$$$$..................$$$$$$$$................... ",
"........................................++++++++++++++....................$$$$$$$$.................$$$$$$$$$....................",
".......................................++++++++++++++++...................$$$$$$$$$................$$$$$$$$.....................",
".......................................+++++++.++++++++....................$$$$$$$$................$$$$$$$$.....................",
"......................................++++++++..+++++++....................$$$$$$$$$..............$$$$$$$$%.....................",
"......................................+++++++...++++++++....................$$$$$$$$..............$$$$$$$$......................",
"......................................+++++++...++++++++....................$$$$$$$$..............$$$$$$$$......................",
".....................................++++++++....+++++++....................%$$$$$$$$............$$$$$$$$.......................",
".....................................+++++++.....++++++++....................$$$$$$$$............$$$$$$$$.......................",
"....................................++++++++.....++++++++....................$$$$$$$$............$$$$$$$$.......................",
"....................................++++++++......+++++++#....................$$$$$$$$..........$$$$$$$$........................",
"...................................++++++++.......++++++++....................$$$$$$$$..........$$$$$$$$........................",
"...................................++++++++.......++++++++....................&$$$$$$$..........$$$$$$$%........................",
"..................................++++++++.........++++++++....................$$$$$$$$........$$$$$$$$.........................",
"..................................++++++++.........++++++++....................$$$$$$$$........$$$$$$$$.........................",
"..................................++++++++.........++++++++.....................$$$$$$$........$$$$$$$..........................",
".................................++++++++...........++++++++....................$$$$$$$$......$$$$$$$$..........................",
" ................................++++++++...........++++++++.....................$$$$$$$......$$$$$$$$......................... ",
" ...............................++++++++............++++++++.....................$$$$$$$&....%$$$$$$$.......................... ",
" ...............................++++++++.............++++++++....................$$$$$$$$....$$$$$$$$.......................... ",
" ..............................++++++++..............++++++++.....................$$$$$$$....$$$$$$$........................... ",
" ..............................++++++++..............++++++++.....................$$$$$$$....$$$$$$$........................... ",
" .............................+++++++++...............++++++++.....................$$$$$$$..$$$$$$$$........................... ",
"  ............................++++++++................++++++++.....................$$$$$$$..$$$$$$$...........................  ",
"  ............................++++++++................+++++++++....................$$$$$$$..$$$$$$$...........................  ",
"  ...........................++++++++..................++++++++.....................$$$$$$..$$$$$$$...........................  ",
"  ...........................++++++++..................+++++++++....................$$$$$$$$$$$$$$............................  ",
"   .........................++++++++....................+++++++++....................$$$$$$$$$$$$$...........................   ",
"   .........................++++++++....................+++++++++++++................$$$$$$$$$$$$............................   ",
"   ........................+++++++++....................+++++++++++++................$$$$$$$$$$$$............................   ",
"    .......................++++++++......................++++++++++++.................$$$$$$$$$$$...........................    ",
"    ......................@++++++++.......................+++++++++++.................$$$$$$$$$$............................    ",
"    ......................++++++++........................+++++++++++..................$$$$$$$$$............................    ",
"     .....................++++++++..........................+++++++++..................$$$$$$$$$...........................     ",
"     ..........................................................++......................$$$$$$$$............................     ",
"      .................................................................................$$$$$$$$...........................      ",
"      ................................................................................$$$$$$$$............................      ",
"       ...............................................................................$$$$$$$$...........................       ",
"       ...............................................................................$$$$$$$$...........................       ",
"        .............................................................................$$$$$$$$...........................        ",
"        .............................................................................$$$$$$$$...........................        ",
"         ...........................................................................$$$$$$$$...........................         ",
"         ..........................................................................%$$$$$$$$...........................         ",
"          .........................................................................$$$$$$$$...........................          ",
"           .......................................................................$$$$$$$$$..........................           ",
"           .....................................................................$$$$$$$$$$...........................           ",
"            ............................................................$$$$$$$$$$$$$$$$$%..........................            ",
"             ...........................................................$$$$$$$$$$$$$$$$$..........................             ",
"              ..........................................................$$$$$$$$$$$$$$$$..........................              ",
"              ..........................................................$$$$$$$$$$$$$$$...........................              ",
"               .........................................................$$$$$$$$$$$$$............................               ",
"                ........................................................$$$$$$$$$$$.............................                ",
"                 ..........................................................$$$$................................                 ",
"                  ............................................................................................                  ",
"                   ..........................................................................................                   ",
"                    ........................................................................................                    ",
"                     ......................................................................................                     ",
"                      ....................................................................................                      ",
"                       ..................................................................................                       ",
"                         ..............................................................................                         ",
"                          ............................................................................                          ",
"                           ..........................................................................                           ",
"                             ......................................................................                             ",
"                              ....................................................................                              ",
"                                ................................................................                                ",
"                                  ............................................................                                  ",
"                                    ........................................................                                    ",
"                                      ....................................................                                      ",
"                                        ................................................                                        ",
"                                           ..........................................                                           ",
"                                              ....................................                                              ",
"                                                  ............................                                                  ",
"                                                        ................                                                        "};
